<svg xmlns="http://www.w3.org/2000/svg" viewBox="0 0 1264.41 1518"><defs><style>.cls-1,.cls-3{fill:#979797;}.cls-2{fill:#61a706;}.cls-3{fill-rule:evenodd;}</style></defs><g id="Layer_2" data-name="Layer 2"><g id="Layer_1-2" data-name="Layer 1"><path class="cls-1" d="M411.38,359.86c-13-5.92-24.32-10.51-33.5-14q-2.92-21.72-4.24-43.53a195.19,195.19,0,0,1,1.17-35.43c7.82,1.28,18.91,3.23,32.71,5.91a320.26,320.26,0,0,0,0,52.12Q408.93,342.52,411.38,359.86Zm128.78,76a755.87,755.87,0,0,0-90.75-57.26c-5.44-33.49-7.78-66.66-5.72-98.25,24.86,5.49,54.22,12.57,86.55,21.56-2.15,42.23,1.82,87.66,9.92,134Zm338.22,17.62c-.31,3.65-.74,7.34-1.13,11-45,23.5-89.77,55.15-130,97.86-13,13.81-24.9,27.65-35.75,41.46-12.16-15.39-25.17-31-39-46.67q-9.27-10.51-18.62-20.42C643.54,467.51,637,399.14,635.75,335.08c80.09,28.44,166.56,67,242.63,118.44Z"/><path class="cls-1" d="M421.21,205.52a292.5,292.5,0,0,0-13.68,67.32c-13.81-2.67-24.9-4.62-32.72-5.9a201.06,201.06,0,0,1,3.85-21.66A438.75,438.75,0,0,1,421.21,205.52Z"/><path class="cls-1" d="M577.92,117.23c-23.68,43.45-42.67,102-47.45,180.12-.08,1.52-.16,3.07-.23,4.59-32.33-9-61.7-16.06-86.54-21.55,0-1.05.11-2.06.18-3.11a274.76,274.76,0,0,1,33.46-111.9A523.38,523.38,0,0,1,577.92,117.23Z"/><path class="cls-1" d="M878.38,453.52c-76.08-51.42-162.54-90-242.63-118.44-1.54-76.31,4.4-146.47,20.19-204.59.43-1.59.86-3.18,1.33-4.74,63.51,37.53,146.28,79.38,224.85,97.78,6.84,69.27,4.78,148-3.74,230Z"/><path class="cls-1" d="M1148.08,302.37a604.43,604.43,0,0,1-13.69,96c-9.07.34-19.5.93-31.08,1.94A614.44,614.44,0,0,0,1114.2,325c6.89-86.23-21-151.93-53.21-197.78,9.46,2.68,18.4,5.32,26.76,7.89C1124,181,1151.89,239.94,1148.08,302.37Zm-80.51,102.14a631.28,631.28,0,0,0-83.78,17.84c6.89-43.28,9.88-85.56,7.46-125-5.48-90-29.83-153.91-58.49-198.83,27,4.44,52.5,9.69,76.07,15.21,37.62,44.42,64.22,99.84,69,163.56C1080.86,317.89,1076.51,361.18,1067.57,404.51Z"/><path class="cls-1" d="M882.11,223.53c-78.57-18.4-161.33-60.25-224.84-97.78A268.68,268.68,0,0,1,668.5,93.94q17.46-3,36-4.87c49.62-5,99.17-4.59,146.35-.7a280,280,0,0,1,15,42.12C873.48,158.85,878.85,190.08,882.11,223.53Z"/><path class="cls-1" d="M542.91,46.48c-2.6,1.6-87,53.56-121.7,159a437.37,437.37,0,0,0-42.54,39.75C401.61,145.77,493.21,64.49,542.91,46.48Zm53.41,41a302.36,302.36,0,0,0-18.4,29.72,522.48,522.48,0,0,0-100.58,48.15c21.63-39.68,52-73.47,86.26-100.28,8.14,5.8,19.26,13.5,32.72,22.41Z"/><path class="cls-1" d="M1087.75,135.08c-8.36-2.57-17.3-5.21-26.76-7.89C1022.91,73,978.73,46.44,978.73,46.44,1008.05,57,1052,89.7,1087.75,135.08Zm-78.92-21.35C985.26,108.2,959.7,103,932.76,98.52,884.41,22.6,823.69,1.05,820.74,0,885.85,13.07,957.57,53.21,1008.83,113.73Zm-158-25.36c-47.18-3.89-96.73-4.36-146.36.7q-18.5,1.88-36,4.87C703.35,11.75,760.06,0,760.06,0h1.6S815.8,11.2,850.81,88.37ZM701,0c-2.81,1-57.73,20.46-104.68,87.48-13.45-8.91-24.57-16.61-32.71-22.41C606.42,31.66,655.32,9.18,701,0Z"/><path class="cls-2" d="M760.86,1066.42h58.28l21.56-94.09H681l21.56,94.09Z"/><path class="cls-1" d="M1242.66,1207.21h3.62a5.82,5.82,0,0,0,3.55-.78,2.52,2.52,0,0,0,.94-2,2.42,2.42,0,0,0-.46-1.46,2.7,2.7,0,0,0-1.26-1,9.49,9.49,0,0,0-3-.31h-3.4Zm-3,10.41v-18.51H1246a15.5,15.5,0,0,1,4.71.52,4.6,4.6,0,0,1,2.33,1.79,4.78,4.78,0,0,1,.86,2.71,4.92,4.92,0,0,1-1.44,3.53,5.75,5.75,0,0,1-3.85,1.69,5.33,5.33,0,0,1,1.58,1A20.94,20.94,0,0,1,1253,1214l2.26,3.62h-3.64l-1.64-2.91a14.73,14.73,0,0,0-3.12-4.31,3.9,3.9,0,0,0-2.4-.64h-1.75v7.86Zm7.55-23.86a14.67,14.67,0,0,0-7.06,1.86,13.36,13.36,0,0,0-5.36,5.31,14.23,14.23,0,0,0,0,14.31,13.52,13.52,0,0,0,5.32,5.31,14.37,14.37,0,0,0,14.28,0,13.4,13.4,0,0,0,5.3-5.31,14.36,14.36,0,0,0,0-14.31,13.15,13.15,0,0,0-5.35-5.31,14.72,14.72,0,0,0-7-1.86Zm0-2.85a17.68,17.68,0,0,1,8.46,2.22,15.87,15.87,0,0,1,6.42,6.37,17.24,17.24,0,0,1,0,17.17,16,16,0,0,1-6.36,6.36,17.27,17.27,0,0,1-17.12,0,16,16,0,0,1-6.37-6.36,17.17,17.17,0,0,1,0-17.17,15.9,15.9,0,0,1,6.43-6.37,17.65,17.65,0,0,1,8.46-2.22Zm-201.12,175,37,1.47,30.15-136.92,31.31,136.92h37.59l33.5-174.5h-28.56L1165,1336.46h-5.25l-32.33-143.62h-26.22l-31.75,143.62h-4.08l-23.6-143.62h-30.88Zm-72.85-69-22.11-81H945l-21.64,81Zm6,22.13H917.44l-12.92,48.37H873.93l56.81-174.5h35.54l57.68,174.5H992.51Zm-214-44h37a28.84,28.84,0,0,0,28.84-28.84v-1.46a28.84,28.84,0,0,0-28.84-28.84h-37Zm65.83,92.35-40.1-70.5H765.28v70.5H734.4v-174.5h73.26A51.13,51.13,0,0,1,858.79,1244v1.75a51.15,51.15,0,0,1-36.14,48.89L864,1367.34Zm-148.27-94.55v14.59a56.94,56.94,0,0,1-56.94,56.94H608.26V1215.85H625.9A56.94,56.94,0,0,1,682.84,1272.79Zm-49.39-80h-54v174.5h54A77.35,77.35,0,0,0,710.8,1290v-19.81A77.35,77.35,0,0,0,633.45,1192.84Zm-81.13,153.23h-4.08a7.28,7.28,0,0,1-7.27-7.28V1193.13h-30.6v144.78c0,45.74,44.86,30.59,44.86,30.59Zm-90-56.52H400.84s5.54-35,30.73-35S462.31,1277,462.31,1289.55Zm-88.56,12.38c0,46.76,29.72,63.08,54.47,68s54.19-12.81,54.19-12.81a181.24,181.24,0,0,0-11.36-17.77c-3.5,2.32-24.77,17.19-46.61,6.7s-24.18-37-24.18-37h85.93c5.54-58.55-25.63-76-52.43-76-25.35,0-60,22.14-60,68.89Zm-8.45-42.38s2.33-9.62,5.53-24.18C342,1221.68,315.19,1263,315.19,1263v-27.67H290.73v131.38h28v-80.11c21-36.71,46.61-27.09,46.61-27.09Zm-120.9,42c0,25.33-15.25,45.88-34.08,45.88s-34.07-20.55-34.07-45.88,15.25-45.88,34.07-45.88S244.4,1276.16,244.4,1301.5Zm-35-68.46c-34.28,0-62,30.65-62,68.46s27.77,68.45,62,68.45,62.05-30.65,62.05-68.45S243.71,1233,209.45,1233Zm-72.69,112.59c-14.51,16.12-34.34,26.07-56.22,26.07C36.06,1371.7,0,1330.62,0,1279.94s36.06-91.76,80.54-91.76c19.75,0,37.84,8.1,51.86,21.56l-16.08,20.51c-9.15-9.86-21-15.86-34-15.86-28.88,0-52.29,29.35-52.29,65.55s23.41,65.55,52.29,65.55c14.13,0,26.93-7,36.33-18.47Z"/><path class="cls-1" d="M113.18,1460.38c0-35.91,20.53-57.8,48.6-57.8,14.67,0,24.33,7,30.53,13.73l-7.39,9.22c-5.36-5.83-12.16-10.5-22.79-10.5-21.33,0-35,17.24-35,45,0,28,12.59,45.54,35.17,45.54,7.59,0,14.89-2.4,19.08-6.55v-29H158.93v-11.75h34.7v46.81c-6.7,7.35-18,12.76-32,12.93h-1.1c-27.7-.22-47.39-21.64-47.39-57.62ZM249.37,1465l10.56-7.33,32.3,58.28H277Zm.72-7.61c16.48,0,25.54-7,25.54-21.45,0-14.64-9.06-19.85-25.54-19.85H232.34v41.3Zm-31.22-52.79H252c21.56,0,37,8.14,37,31.34,0,22.24-15.49,33-37,33H232.34V1516H218.87Zm95.93,66.12h48.74V1482H314.8Zm17-66.12H347L382.79,1516H368.52l-18.46-62.2c-3.8-12.45-7.2-24.67-10.6-37.53h-.64c-3.28,12.92-6.67,25.08-10.48,37.53L309.69,1516H296Zm94.53,55.68c18.5,0,27.33-7,27.33-22.89,0-16.07-9.38-21.3-28-21.3H410.59v44.19Zm-29.2-55.68h30.25c23.71,0,39.72,8.4,39.72,32.79,0,23.44-15.92,34.39-39.09,34.39h-17.4V1516H397.11Zm91.31,0H501.9v46.63h49.23v-46.63h13.48V1516H551.13v-52.36H501.9V1516H488.42Zm105.18,0h13.48V1516H593.6Zm36.28,55.77c0-35.91,20.12-57.8,47-57.8a38.59,38.59,0,0,1,29.1,13.73l-7.37,9.22C693,1419.28,686,1415,677.1,1415c-20,0-33.3,17.24-33.3,45,0,28,12.7,45.54,32.77,45.54,10.11,0,17.79-4.63,24.54-12.52l7.39,8.9c-8.23,10-18.4,15.89-31.84,16.07h-1C649.44,1517.78,629.88,1496.36,629.88,1460.38Zm86.71,41.09,8.06-9.73c7.63,8.31,18.2,13.8,29.21,13.8,13.89,0,22.13-7.27,22.13-18.1,0-11.37-7.66-15-17.65-19.59l-15.21-7.06c-9.87-4.42-21.44-12.29-21.44-28.67,0-17,14.09-29.55,33.33-29.55a42.71,42.71,0,0,1,31.17,13.79l-7.14,9.11C772.56,1419,764.8,1415,755,1415c-11.87,0-19.74,6.31-19.74,16.26,0,10.73,9.23,14.75,17.53,18.44l15.09,6.87c12.24,5.53,21.8,13.21,21.8,29.77,0,17.52-13.71,31.53-35.82,31.64h-.61a49.62,49.62,0,0,1-36.68-16.53Zm118.41,0,8.06-9.73c7.63,8.31,18.21,13.8,29.22,13.8,13.89,0,22.12-7.27,22.12-18.1,0-11.37-7.66-15-17.66-19.59l-15.2-7.06c-9.87-4.42-21.44-12.29-21.44-28.67,0-17,14.09-29.55,33.32-29.55a42.73,42.73,0,0,1,31.18,13.79l-7.14,9.11c-6.49-6.44-14.25-10.45-24-10.45-11.86,0-19.73,6.31-19.73,16.26,0,10.73,9.24,14.75,17.53,18.44l15.08,6.87c12.25,5.53,21.81,13.21,21.81,29.77,0,17.52-13.7,31.53-35.82,31.64h-.6A49.61,49.61,0,0,1,835,1501.47ZM928.39,1470V1404.6h13.46v65.77c0,26.76,10.76,35.17,24.58,35.17,14,0,25.1-8.41,25.1-35.17V1404.6h12.92V1470c0,35.73-16.41,48-38,48S928.39,1505.71,928.39,1470Zm104.48-65.37h13.48V1516h-13.48Zm64.47,12h-32v-12h77.54v12h-32V1516h-13.48Zm64.43-12h61v12h-47.54v34.89h40.11v12h-40.11V1504h49.17v12h-62.64Z"/><path class="cls-3" d="M540.73,645.22c11.21,23.19,21.91,43.88,31.11,61.15a858.16,858.16,0,0,0,46.3,77.55,480.08,480.08,0,0,1,17-49.32c-12-27.57-24.08-57.17-35.54-88-24.94-67-47.07-139.89-59.47-210.69a756,756,0,0,0-90.75-57.24c15.4,95.29,55.89,193.42,91.32,266.58Z"/><path class="cls-3" d="M488.07,644q9.53,16.62,19.8,33.49c32,52.47,69,100.93,101.86,140.29q1.47-7.17,3.36-14.7c-13.32-18.28-26.3-36.88-37.47-54.11-16-24.65-39.2-60.4-63.35-104.39-41.39-75.45-85.57-175.17-100.89-284.74-13-5.92-24.31-10.5-33.5-14,13.23,98.25,50.8,194.66,110.19,298.12Z"/><path class="cls-3" d="M659.68,573.35c4.16,24.81,9,50,14.27,74.91.51,2.37,1,4.74,1.52,7.11a555.57,555.57,0,0,1,36-51.49q-18.87-23.85-39-46.68-9.25-10.49-18.62-20.41c1.82,12.18,3.72,24.35,5.79,36.56Z"/><path class="cls-3" d="M1103.31,400.34c-14.83,72-40.94,138.68-68.71,195.7q8.42,8.46,16.4,16.82c39.57-73.56,67.7-143.95,83.39-214.46C1125.32,398.76,1114.89,399.32,1103.31,400.34Zm-119.52,22a978.54,978.54,0,0,1-22.74,104.08c16.36,14.75,34.26,31.29,51.85,48.25,22-52.54,42.56-111.41,54.67-170.19a634.76,634.76,0,0,0-83.78,17.86Z"/><path class="cls-3" d="M747.23,562.42c-13,13.8-24.9,27.66-35.75,41.46a1111.92,1111.92,0,0,1,108,164.25c9.26-35.78,18.86-75.38,27.45-115.94,5.57-26.18,10.7-52.71,15.09-78.84,6.15-36.49,11.28-72.93,15.21-108.79A487.84,487.84,0,0,0,747.23,562.42ZM1034.6,596q-1.59,3.27-3.2,6.5C1000,665.94,967,716.85,946.1,749c-24.08,37.08-56.52,80.53-82.23,113.77.94,2.46,1.83,4.75,2.69,6.93,39.81-43.37,99.17-113.26,147.29-192.18q18.11-29.71,33.89-58.63c1.1-2,2.18-4,3.25-6q-8-8.34-16.39-16.82Zm-73.55-69.6L959.8,531c-30.5,110.17-77,216.91-113.74,290.46,4,8.75,7.62,16.89,10.81,24.35,34-40.42,62-81.34,93-139.4,17.06-32,39.17-75.53,60.25-125.1l2.78-6.58c-17.59-17-35.49-33.5-51.85-48.25Z"/><path class="cls-3" d="M791.52,917.29c24.82-25.71,46.07-48.54,65.35-71.52-3.19-7.46-6.81-15.6-10.81-24.35C820,873.54,798.76,909,791.52,917.29Z"/><path class="cls-3" d="M822,915.78c1.32-1.29,18.9-18.2,44.57-46.09-.86-2.18-1.75-4.47-2.69-6.93C840.89,892.53,823.34,914.14,822,915.78Z"/><path class="cls-3" d="M675.47,655.37c29.33,137.18,69.54,263,69.54,263h31.71s20.41-63.9,42.78-150.25a1111.92,1111.92,0,0,0-108-164.25A555.57,555.57,0,0,0,675.47,655.37Z"/><path class="cls-3" d="M618.14,783.92C650.19,831.53,684,869.38,730.2,917.29c-10.78-12.32-52.47-84.78-95-182.69a480.08,480.08,0,0,0-17,49.32Z"/><path class="cls-3" d="M609.73,817.8c48.39,57.91,88,96,90,98-2.13-2.64-45.8-56.32-86.68-112.68q-1.87,7.51-3.36,14.7Z"/></g></g></svg>