<?xml version="1.0" encoding="utf-8"?>
<!-- Generator: Adobe Illustrator 25.2.1, SVG Export Plug-In . SVG Version: 6.00 Build 0)  -->
<svg version="1.1"
	 id="Layer_1" text-rendering="geometricPrecision" image-rendering="optimizeQuality" shape-rendering="geometricPrecision"
	 xmlns="http://www.w3.org/2000/svg" xmlns:xlink="http://www.w3.org/1999/xlink" x="0px" y="0px" viewBox="0 0 2500 1518"
	 style="enable-background:new 0 0 2500 1518;" xml:space="preserve">
<style type="text/css">
	.st0{fill:none;stroke:#000000;stroke-miterlimit:10;}
	.st1{fill:none;}
	.st2{fill:#FAFAFA;}
	.st3{fill:url(#SVGID_1_);}
	.st4{opacity:0.1;fill:#231F20;enable-background:new    ;}
	.st5{fill:url(#SVGID_2_);}
	.st6{fill:url(#SVGID_3_);}
	.st7{fill:#FFFFFF;}
</style>
<path class="st0" d="M2096.8,658.7H343.2c-8.2,0-14.8-6.6-14.8-14.8v-265c0-8.2,6.6-14.8,14.8-14.8h1753.6c8.2,0,14.8,6.6,14.8,14.8
	v265C2111.6,652,2104.9,658.7,2096.8,658.7z"/>
<line class="st0" x1="328.4" y1="431.5" x2="2111.6" y2="431.5"/>
<rect x="1197.6" y="431.5" class="st0" width="52.4" height="227.2"/>
<line class="st0" x1="1250" y1="545.1" x2="1197.6" y2="545.1"/>
<g>
	<path class="st1" d="M1079.2,599.5h28.7v28.7h-28.7V599.5z"/>
	<path d="M1098.4,600.7H1084c-1.3,0-2.4,1.1-2.4,2.4v16.7h2.4v-16.7h14.3V600.7z M1101.9,605.5h-13.2c-1.3,0-2.4,1.1-2.4,2.4v16.7
		c0,1.3,1.1,2.4,2.4,2.4h13.2c1.3,0,2.4-1.1,2.4-2.4v-16.7C1104.3,606.5,1103.3,605.5,1101.9,605.5z M1101.9,624.6h-13.2v-16.7h13.2
		V624.6z"/>
</g>
<g>
	<g>
		<rect x="1138.4" y="598.5" class="st1" width="32.1" height="32.1"/>
	</g>
	<g>
		<g>
			<path d="M1162.9,604.2c-2-1.6-4.4-2.7-7.1-3v2.7c2,0.2,3.7,1,5.2,2.2L1162.9,604.2z M1165,613.2h2.7c-0.3-2.7-1.3-5.1-3-7.1
				l-1.9,1.9C1164,609.5,1164.8,611.2,1165,613.2z M1162.9,621.1l1.9,1.9c1.6-2,2.7-4.4,3-7.1h-2.7
				C1164.8,617.8,1164,619.6,1162.9,621.1z M1155.8,625.1v2.7c2.7-0.3,5.1-1.3,7.1-3l-1.9-1.9
				C1159.5,624.1,1157.7,624.9,1155.8,625.1z M1155.8,614.5v-6.7h-2.7v6.7h-5.3l6.7,6.7l6.7-6.7H1155.8z M1153.1,625.1v2.7
				c-6.7-0.7-12-6.4-12-13.3s5.3-12.6,12-13.3v2.7c-5.3,0.7-9.4,5.1-9.4,10.6S1147.8,624.5,1153.1,625.1z"/>
		</g>
	</g>
</g>
<g>
	<path class="st1" d="M1990.3,599.5h28.7v28.7h-28.7V599.5z"/>
	<path d="M2009.4,600.7H1995c-1.3,0-2.4,1.1-2.4,2.4v16.7h2.4v-16.7h14.3V600.7z M2013,605.5h-13.2c-1.3,0-2.4,1.1-2.4,2.4v16.7
		c0,1.3,1.1,2.4,2.4,2.4h13.2c1.3,0,2.4-1.1,2.4-2.4v-16.7C2015.4,606.5,2014.3,605.5,2013,605.5z M2013,624.6h-13.2v-16.7h13.2
		V624.6z"/>
</g>
<g>
	<g>
		<rect x="2049.4" y="598.5" class="st1" width="32.1" height="32.1"/>
	</g>
	<g>
		<g>
			<path d="M2073.9,604.2c-2-1.6-4.4-2.7-7.1-3v2.7c2,0.2,3.7,1,5.2,2.2L2073.9,604.2z M2076.1,613.2h2.7c-0.3-2.7-1.3-5.1-3-7.1
				l-1.9,1.9C2075,609.5,2075.8,611.2,2076.1,613.2z M2073.9,621.1l1.9,1.9c1.6-2,2.7-4.4,3-7.1h-2.7
				C2075.8,617.8,2075,619.6,2073.9,621.1z M2066.8,625.1v2.7c2.7-0.3,5.1-1.3,7.1-3l-1.9-1.9
				C2070.5,624.1,2068.7,624.9,2066.8,625.1z M2066.8,614.5v-6.7h-2.7v6.7h-5.3l6.7,6.7l6.7-6.7H2066.8z M2064.1,625.1v2.7
				c-6.7-0.7-12-6.4-12-13.3s5.3-12.6,12-13.3v2.7c-5.3,0.7-9.4,5.1-9.4,10.6S2058.8,624.5,2064.1,625.1z"/>
		</g>
	</g>
</g>
<g>
	<rect x="-1826.6" y="507.3" class="st2" width="1392.7" height="913"/>
	<g id="Layer_2_1_">
		<g id="Layer_1-2">
			
				<linearGradient id="SVGID_1_" gradientUnits="userSpaceOnUse" x1="-1281.8967" y1="813.7521" x2="-978.5165" y2="813.7521" gradientTransform="matrix(1 0 0 -1 0 1518)">
				<stop  offset="0" style="stop-color:#892955"/>
				<stop  offset="1" style="stop-color:#FBB49A"/>
			</linearGradient>
			<path class="st3" d="M-978.5,619.4v217.4c0,7.3-5.9,13.2-13.2,13.2c0,0,0,0,0,0H-1111c-4.9,0-9.4-2.7-11.7-7l-17.7-33.1
				c-2.3-4.3-6.8-7-11.7-7h-116.6c-7.3,0-13.2-5.9-13.3-13.1c0,0,0,0,0-0.1v-218c0-7.3,5.9-13.2,13.2-13.2h121.6
				c4.9,0,9.4,2.7,11.7,7l18,33.8c2.3,4.3,6.8,7,11.7,7h114.1C-984.5,606.3-978.6,612.1-978.5,619.4z"/>
			<path class="st4" d="M-1043.9,850l-61.2-80.2l52.2-22.7L-1090,660l63.2-48.2l48.3,63.3v161.8c0,7.3-5.9,13.2-13.2,13.2l0,0
				H-1043.9z"/>
			
				<linearGradient id="SVGID_2_" gradientUnits="userSpaceOnUse" x1="-1226.498" y1="806.0546" x2="-1002.6295" y2="806.0546" gradientTransform="matrix(1 0 0 -1 0 1518)">
				<stop  offset="0" style="stop-color:#FCB295"/>
				<stop  offset="1" style="stop-color:#FFFFFF"/>
			</linearGradient>
			<path class="st5" d="M-1059.5,671.3l-21.4-59.5l-6.3-17.5h-54.8l-84.6,235.4h49.6l15.5-44.8h93.6l8.3,24.3l7.1,20.4h49.8
				L-1059.5,671.3z M-1148.7,747.1l34-98.2l17.3,49.9l16.8,48.4L-1148.7,747.1z"/>
			
				<linearGradient id="SVGID_3_" gradientUnits="userSpaceOnUse" x1="-1259.4276" y1="798.6407" x2="-1026.83" y2="798.6407" gradientTransform="matrix(1 0 0 -1 0 1518)">
				<stop  offset="0" style="stop-color:#FFFFFF"/>
				<stop  offset="1" style="stop-color:#7F1445"/>
			</linearGradient>
			<path class="st6" d="M-1080.9,611.8l21.4,59.5v-27.7h32.7v-31.8H-1080.9z M-1097.5,784.9v44.8h37.9v-20.4l-8.4-24.4
				L-1097.5,784.9z M-1131.9,744.8l34.5,0.3v2h16.8l-16.7-48.4v14.9h-54.8c-4.4-3-9.4-5.1-14.6-6.2v-0.6c9.7-2.7,18.2-8.5,24.1-16.6
				c5.8-8.2,8.8-18.1,8.5-28.1c0-16.1-5.5-29-16.5-38.6l-1.3-1.1c-10.9-8.9-25.1-13.3-42.5-13.3c-11.3-0.2-22.6,2.2-32.8,7.1
				c-9.2,4.5-16.9,11.5-22.2,20.2c-5.4,9.1-8.1,19.6-7.9,30.2h35c-0.2-7,2.7-13.7,8-18.3c5.5-4.8,12.7-7.3,20-7.1
				c7-0.2,13.7,2.4,18.7,7.2c5,4.9,7.8,11.7,7.5,18.7v0.3c0,6.8-2.8,13.4-7.9,17.9c-5.3,4.9-12.7,7.4-22.1,7.4h-12.7v30.6h12.7
				c3.2,0,6.4,0.3,9.5,0.9c5.6,0.9,10.9,3.5,14.9,7.5c5.4,5.4,8.4,12.8,8.2,20.4c0.3,7.5-2.5,14.7-7.6,20.1
				c-5.6,5.4-13.2,8.2-20.9,7.8c-4.7,0-9.4-0.9-13.7-2.9c-2.9-1.3-5.5-3.1-7.8-5.3c-5.5-5.4-8.5-12.8-8.3-20.4h-35.6
				c-0.2,11.3,2.7,22.4,8.5,32.1c5.7,9.4,14.1,16.9,24,21.6c2.6,1.3,5.2,2.4,8,3.3c8.8,3,18.1,4.5,27.4,4.4
				c7.1,0.1,14.3-0.9,21.1-2.8c8.5-2.4,16.3-6.8,22.7-12.8c3.8-3.6,7.1-7.8,9.6-12.4c4.8-9,7.1-19,6.9-29.2c0-2.9-0.2-5.8-0.6-8.7
				L-1131.9,744.8z"/>
		</g>
	</g>
	<text transform="matrix(1 0 0 1 -1629.2405 959.5375)"><tspan x="0" y="0" style="fill:#8B2C56; font-family:'PTSans-Regular'; font-size:107.9207px;">Y</tspan><tspan x="60.2" y="0" style="fill:#5F6368; font-family:'PTSans-Regular'; font-size:107.9207px;">uni</tspan><tspan x="206.3" y="0" style="fill:#F7B098; font-family:'PTSans-Regular'; font-size:107.9207px;">K</tspan><tspan x="272.2" y="0" style="fill:#5F6368; font-family:'PTSans-Regular'; font-size:107.9207px;">riti</tspan><tspan x="403.3" y="0" style="font-family:'PTSans-Regular'; font-size:107.9207px;"> </tspan><tspan x="432.1" y="0" style="fill:#5F6368; font-family:'Roboto-Thin'; font-size:107.9207px;">Transliterate</tspan></text>
	
		<image style="overflow:visible;" width="1888" height="493" xlink:href="775AB7FB.jpg"  transform="matrix(0.7377 0 0 0.7377 -1826.5787 999.259)">
	</image>
	<rect x="-1826.6" y="1304.1" class="st7" width="1392.7" height="116.2"/>
	<rect x="-1246.8" y="1152.3" class="st7" width="48" height="52.8"/>
</g>
<rect x="-2868" y="1548.7" class="st2" width="1392.7" height="913"/>
<image style="overflow:visible;" width="1601" height="625" xlink:href="775AB7F8.png"  transform="matrix(0.8314 0 0 0.8314 -2838.405 1548.6787)">
</image>
</svg>
