<svg xmlns="http://www.w3.org/2000/svg" viewBox="0 0 512 512"><defs><style>.cls-1{fill:#ffc422;}</style></defs><g id="Layer_2" data-name="Layer 2"><g id="Layer_1-2" data-name="Layer 1"><path class="cls-1" d="M0,512V0H512V512Zm304.36-89.79c.54,1.09.95,2,1.42,2.84a85.55,85.55,0,0,0,37.82,36.13c12.31,6.05,25.39,9.1,39,10.08,15.69,1.13,31.07-.21,45.91-5.62,17.83-6.5,31.49-17.68,38.74-35.7,4.17-10.38,5.18-21.2,4.39-32.3-.91-12.74-4.55-24.45-12.36-34.69-7.94-10.42-18.3-18-29.83-23.73-13.22-6.59-26.82-12.4-40.23-18.6-6.2-2.86-12.26-5.93-17.19-10.85-8.11-8.09-8.62-27.27,6.33-33.32,10-4,19.92-3,29,3,4.95,3.29,8.34,8.07,11.39,13.07.46.74.95,1.46,1.48,2.28l37.59-24.15c-7.48-13.08-16.74-23.93-30.12-30.53-19.08-9.41-39.19-10.18-59.58-5.66-15,3.31-27.67,10.84-37,23.23-12.43,16.45-14.6,35.06-10.75,54.73,3.4,17.35,13.35,30.31,27.52,40.37,11.35,8.05,24.11,13.3,36.71,18.91,8.79,3.92,17.49,8.07,26,12.56A23.19,23.19,0,0,1,422,396.7c4.33,11.6-.64,23.12-12.64,28.24-12.89,5.5-26,4.82-38.84-.22-11.14-4.37-18.78-12.89-25.19-22.66-.57-.87-1.19-1.71-1.82-2.62Zm-169.68,5.05a6.34,6.34,0,0,0,.3,1.15c7.77,15.93,19.12,28.47,35.5,35.69,21.88,9.64,44.37,9.95,66.89,2.53,16.35-5.38,28-16.33,34.84-32.15,5-11.41,6.56-23.48,6.57-35.79q.06-80.54.07-161.09c0-2.48-.8-3-3.12-3-14,.1-28,0-42,0-3.53,0-3.54,0-3.54,3.48q0,78.91,0,157.84a112.25,112.25,0,0,1-.56,11.45c-1.2,11.72-7,18.22-17.82,20.33a38.93,38.93,0,0,1-4.71.47c-8.29.49-15.89-1.43-21.48-7.81-3.91-4.47-7-9.67-10.42-14.55-.5-.71-1-1.45-1.49-2.26Z"/></g></g></svg>